<?xml version="1.0" encoding="utf-8"?>
<!-- Generator: Adobe Illustrator 17.0.0, SVG Export Plug-In . SVG Version: 6.00 Build 0)  -->
<!DOCTYPE svg PUBLIC "-//W3C//DTD SVG 1.1//EN" "http://www.w3.org/Graphics/SVG/1.1/DTD/svg11.dtd">
<svg version="1.1" id="图层_1" xmlns="http://www.w3.org/2000/svg" xmlns:xlink="http://www.w3.org/1999/xlink" x="0px" y="0px"
	 width="578.971px" height="457.333px" viewBox="0 0 578.971 457.333" enable-background="new 0 0 578.971 457.333"
	 xml:space="preserve">
<g opacity="0.9">
	<defs>
		<rect id="SVGID_1_" x="2.64" y="-1.068" opacity="0.9" width="578.373" height="458.4"/>
	</defs>
	<clipPath id="SVGID_2_">
		<use xlink:href="#SVGID_1_"  overflow="visible" opacity="0.4"/>
	</clipPath>
	<g clip-path="url(#SVGID_2_)">
		<defs>
			
				<rect id="SVGID_3_" x="-72.347" y="-174.008" transform="matrix(0.7071 -0.7071 0.7071 0.7071 -135.3547 318.4612)" width="778.172" height="993.253"/>
		</defs>
		<clipPath id="SVGID_4_">
			<use xlink:href="#SVGID_3_"  overflow="visible" opacity="0.4"/>
		</clipPath>
		
			<rect x="-24.453" y="-203.104" transform="matrix(0.7071 -0.7071 0.7071 0.7071 -106.0182 330.7539)" opacity="0.4" clip-path="url(#SVGID_4_)" fill="#EFEFEF" width="741.399" height="992.912"/>
		<g clip-path="url(#SVGID_4_)">
			<path fill="#FFFFFF" d="M157.156,1122.306c0,3.972,2.913,7.192,6.507,7.192l0,0c3.594,0,6.507-3.22,6.507-7.192v-436.29
				c0-3.972-2.913-7.192-6.507-7.192l0,0c-3.594,0-6.507,3.22-6.507,7.192V1122.306z"/>
			<path fill="#F7C06D" d="M486.228,1178.24c0,3.972,2.913,7.192,6.507,7.192l0,0c3.594,0,6.507-3.22,6.507-7.192v-436.29
				c0-3.972-2.913-7.192-6.507-7.192l0,0c-3.594,0-6.507,3.22-6.507,7.192V1178.24z"/>
			<path fill="#FFFFFF" d="M456.587,1130.696c0,3.972,2.913,7.192,6.507,7.192l0,0c3.594,0,6.507-3.22,6.507-7.192v-436.29
				c0-3.972-2.913-7.192-6.507-7.192l0,0c-3.594,0-6.507,3.22-6.507,7.192V1130.696z"/>
			<path fill="#F7C06D" d="M109.898,920.749c0,7.061,5.179,12.785,11.567,12.785l0,0c6.389,0,11.567-5.724,11.567-12.785V541.992
				c0-7.061-5.179-12.785-11.567-12.785l0,0c-6.389,0-11.567,5.724-11.567,12.785V920.749z"/>
		</g>
		<g opacity="0.4" clip-path="url(#SVGID_4_)">
			<path fill="#B1DFF8" d="M26.511-190.042c-12.794-12.794-13.782-32.55-2.206-44.126l0,0c11.575-11.575,31.332-10.588,44.126,2.206
				L359.983,59.591c12.794,12.794,13.782,32.55,2.206,44.126l0,0c-11.576,11.576-31.332,10.588-44.126-2.206L26.511-190.042z"/>
			<path fill="#B1DFF8" d="M-198.873-126.993c-12.794-12.794-13.782-32.55-2.206-44.126l0,0
				c11.576-11.576,31.332-10.588,44.126,2.206L134.599,122.64c12.794,12.794,13.782,32.55,2.206,44.126l0,0
				c-11.576,11.576-31.332,10.588-44.126-2.206L-198.873-126.993z"/>
			<path fill="#B1DFF8" d="M-368.774-54.471c-7.177-7.177-7.732-18.259-1.238-24.753l0,0c6.494-6.494,17.576-5.939,24.754,1.238
				l265.561,265.561c7.177,7.177,7.731,18.26,1.238,24.753l0,0c-6.494,6.494-17.576,5.939-24.753-1.238L-368.774-54.471z"/>
			<path fill="#B1DFF8" d="M-115.82-146.204c-4.057-4.057-4.37-10.321-0.7-13.991l0,0c3.67-3.67,9.934-3.357,13.991,0.7
				l322.064,322.064c4.057,4.057,4.37,10.321,0.7,13.991l0,0c-3.67,3.67-9.934,3.357-13.991-0.7L-115.82-146.204z"/>
			<path fill="#B1DFF8" d="M48.254-382.029c-11.858-11.858-30.168-12.774-40.897-2.045l0,0
				c-10.728,10.728-9.814,29.039,2.045,40.897L276.094-76.485c11.858,11.858,30.169,12.773,40.897,2.045l0,0
				c10.729-10.729,9.814-29.039-2.045-40.897L48.254-382.029z"/>
			<path fill="#B1DFF8" d="M-70.071-251.839c-2.809-2.809-3.025-7.145-0.484-9.686l0,0c2.541-2.541,6.878-2.325,9.687,0.484
				L247.634,47.462c2.809,2.809,3.025,7.145,0.484,9.686l0,0c-2.541,2.541-6.878,2.324-9.686-0.484L-70.071-251.839z"/>
			<path fill="#B1DFF8" d="M-317.92-70.096c-2.809-2.809-3.025-7.145-0.484-9.686l0,0c2.541-2.541,6.878-2.324,9.686,0.484
				L-0.215,229.205c2.809,2.809,3.025,7.145,0.484,9.686l0,0c-2.541,2.541-6.878,2.324-9.686-0.484L-317.92-70.096z"/>
			<path fill="#B1DFF8" d="M-166.91-51.044c-4.057-4.057-4.37-10.321-0.7-13.991l0,0c3.67-3.67,9.934-3.357,13.991,0.7
				l322.064,322.064c4.057,4.057,4.37,10.321,0.7,13.991l0,0c-3.67,3.67-9.934,3.357-13.991-0.7L-166.91-51.044z"/>
			<path fill="#B1DFF8" d="M84.02-364.689c-4.057-4.057-4.37-10.321-0.7-13.991l0,0c3.67-3.67,9.934-3.357,13.991,0.7
				L419.376-55.916c4.057,4.057,4.37,10.321,0.7,13.991l0,0c-3.67,3.67-9.934,3.357-13.991-0.7L84.02-364.689z"/>
			<path fill="#B1DFF8" d="M-9.774-326.546c-2.809-2.809-3.025-7.145-0.484-9.686l0,0c2.541-2.541,6.878-2.324,9.686,0.484
				L307.931-27.245c2.809,2.809,3.025,7.145,0.484,9.686l0,0c-2.541,2.541-6.878,2.324-9.686-0.484L-9.774-326.546z"/>
			<path fill="#B1DFF8" d="M-115.651,94.321c-4.993-4.993-5.379-12.702-0.861-17.22l0,0c4.518-4.518,12.227-4.132,17.22,0.861
				l267.822,267.822c4.993,4.993,5.379,12.702,0.861,17.22l0,0c-4.518,4.518-12.227,4.132-17.22-0.861L-115.651,94.321z"/>
		</g>
		<path opacity="0.4" clip-path="url(#SVGID_4_)" fill="#FBD6B2" d="M-132.471-83.042c-12.794-12.794-32.55-13.782-44.126-2.206l0,0
			c-11.576,11.576-10.588,31.332,2.206,44.126L117.162,250.43c12.794,12.794,32.55,13.782,44.126,2.206l0,0
			c11.576-11.576,10.588-31.332-2.206-44.126L-132.471-83.042z"/>
		<path opacity="0.4" clip-path="url(#SVGID_4_)" fill="#F4B1B2" d="M-69.422-308.426c-12.794-12.794-32.55-13.782-44.126-2.206l0,0
			c-11.576,11.576-10.588,31.332,2.206,44.126L180.211,25.046c12.794,12.794,32.55,13.782,44.126,2.206l0,0
			c11.576-11.576,10.588-31.332-2.206-44.126L-69.422-308.426z"/>
		<path opacity="0.4" clip-path="url(#SVGID_4_)" fill="#FBD6B2" d="M-111.481-174.562c-7.177-7.177-18.259-7.732-24.753-1.238l0,0
			c-6.494,6.494-5.939,17.576,1.238,24.753l265.561,265.561c7.178,7.178,18.26,7.731,24.753,1.238l0,0
			c6.494-6.494,5.94-17.576-1.238-24.754L-111.481-174.562z"/>
		<path opacity="0.4" clip-path="url(#SVGID_4_)" fill="#F7C06D" d="M3.1-478.327c-7.177-7.177-18.259-7.732-24.753-1.238l0,0
			c-6.494,6.494-5.939,17.576,1.238,24.754l265.561,265.561c7.177,7.177,18.26,7.731,24.753,1.238l0,0
			c6.494-6.494,5.939-17.577-1.238-24.753L3.1-478.327z"/>
		<path opacity="0.4" clip-path="url(#SVGID_4_)" fill="#F4B1B2" d="M-194.269-179.624c-2.809-2.809-7.145-3.025-9.686-0.484l0,0
			c-2.541,2.541-2.324,6.878,0.484,9.686l308.503,308.503c2.809,2.809,7.145,3.025,9.686,0.484l0,0
			c2.541-2.541,2.324-6.878-0.484-9.686L-194.269-179.624z"/>
		<path opacity="0.4" clip-path="url(#SVGID_4_)" fill="#FFFFFF" d="M-24.445-404.254c-2.809-2.809-7.145-3.025-9.686-0.484l0,0
			c-2.541,2.541-2.324,6.878,0.484,9.686L274.857-86.548c2.809,2.809,7.145,3.025,9.686,0.484l0,0
			c2.541-2.541,2.324-6.878-0.484-9.686L-24.445-404.254z"/>
		<path opacity="0.4" clip-path="url(#SVGID_4_)" fill="#FFFFFF" d="M-344.88-115.46c-2.809-2.809-7.145-3.025-9.686-0.484l0,0
			c-2.541,2.541-2.324,6.878,0.484,9.686l308.503,308.503c2.809,2.809,7.145,3.025,9.686,0.484l0,0
			c2.541-2.541,2.324-6.878-0.484-9.686L-344.88-115.46z"/>
		<path opacity="0.4" clip-path="url(#SVGID_4_)" fill="#F4B1B2" d="M-3.607-105.868c-2.809-2.809-7.145-3.025-9.686-0.484l0,0
			c-2.541,2.541-2.324,6.878,0.484,9.686l308.503,308.503c2.809,2.809,7.145,3.025,9.686,0.484l0,0
			c2.541-2.541,2.324-6.878-0.484-9.686L-3.607-105.868z"/>
		<path opacity="0.4" clip-path="url(#SVGID_4_)" fill="#F4B1B2" d="M62.847-359.904c-4.057-4.057-10.321-4.37-13.991-0.7l0,0
			c-3.67,3.67-3.357,9.934,0.7,13.991L371.619-24.549c4.057,4.057,10.321,4.37,13.991,0.7l0,0c3.67-3.67,3.357-9.934-0.7-13.991
			L62.847-359.904z"/>
		<path opacity="0.4" clip-path="url(#SVGID_4_)" fill="#F7C06D" d="M-323.554-131.986c-2.809-2.809-7.145-3.025-9.686-0.484l0,0
			c-2.541,2.541-2.324,6.878,0.484,9.686l308.503,308.503c2.809,2.809,7.145,3.025,9.686,0.484l0,0
			c2.541-2.541,2.324-6.878-0.484-9.686L-323.554-131.986z"/>
		<path opacity="0.4" clip-path="url(#SVGID_4_)" fill="#FBD6B2" d="M124.625-216.018c-4.993-4.993-12.702-5.379-17.22-0.861l0,0
			c-4.518,4.518-4.132,12.227,0.861,17.22L376.088,68.162c4.993,4.993,12.702,5.379,17.22,0.861l0,0
			c4.518-4.518,4.132-12.227-0.861-17.22L124.625-216.018z"/>
	</g>
</g>
<rect x="4.4" y="0" opacity="0.1" fill="#FBD6B2" width="572.445" height="457.333"/>
</svg>
