<?xml version="1.0" encoding="utf-8"?>
<!-- Generator: Adobe Illustrator 17.0.0, SVG Export Plug-In . SVG Version: 6.00 Build 0)  -->
<!DOCTYPE svg PUBLIC "-//W3C//DTD SVG 1.1//EN" "http://www.w3.org/Graphics/SVG/1.1/DTD/svg11.dtd">
<svg version="1.1" id="图层_1" xmlns="http://www.w3.org/2000/svg" xmlns:xlink="http://www.w3.org/1999/xlink" x="0px" y="0px"
	 width="578.971px" height="457.333px" viewBox="0 0 578.971 457.333" enable-background="new 0 0 578.971 457.333"
	 xml:space="preserve">
<g opacity="0.9">
	<defs>
		<rect id="SVGID_1_" x="2.64" y="-1.068" opacity="0.9" width="578.373" height="458.4"/>
	</defs>
	<clipPath id="SVGID_2_">
		<use xlink:href="#SVGID_1_"  overflow="visible" opacity="0.4"/>
	</clipPath>
	<g clip-path="url(#SVGID_2_)">
		<defs>
			
				<rect id="SVGID_3_" x="-122.173" y="-362.98" transform="matrix(-0.7071 0.7071 -0.7071 -0.7071 550.1527 39.4128)" width="778.172" height="993.253"/>
		</defs>
		<clipPath id="SVGID_4_">
			<use xlink:href="#SVGID_3_"  overflow="visible" opacity="0.4"/>
		</clipPath>
		
			<rect x="-133.293" y="-333.543" transform="matrix(-0.7071 0.7071 -0.7071 -0.7071 520.4755 110.2374)" opacity="0.4" clip-path="url(#SVGID_4_)" fill="#EFEFEF" width="741.399" height="992.912"/>
		<g clip-path="url(#SVGID_4_)">
			<path fill="#FFFFFF" d="M426.497-666.041c0-3.972-2.913-7.192-6.507-7.192l0,0c-3.594,0-6.507,3.22-6.507,7.192v436.29
				c0,3.972,2.913,7.192,6.507,7.192l0,0c3.594,0,6.507-3.22,6.507-7.192V-666.041z"/>
			<path fill="#F7C06D" d="M97.425-721.975c0-3.972-2.913-7.192-6.507-7.192l0,0c-3.594,0-6.507,3.22-6.507,7.192v436.29
				c0,3.972,2.913,7.192,6.507,7.192l0,0c3.594,0,6.507-3.22,6.507-7.192V-721.975z"/>
			<path fill="#FFFFFF" d="M127.066-674.431c0-3.972-2.913-7.192-6.507-7.192l0,0c-3.594,0-6.507,3.22-6.507,7.192v436.29
				c0,3.972,2.913,7.192,6.507,7.192l0,0c3.594,0,6.507-3.22,6.507-7.192V-674.431z"/>
			<path fill="#F7C06D" d="M473.755-464.484c0-7.061-5.179-12.785-11.567-12.785l0,0c-6.389,0-11.567,5.724-11.567,12.785v378.757
				c0,7.061,5.179,12.785,11.567,12.785l0,0c6.389,0,11.567-5.724,11.567-12.785V-464.484z"/>
		</g>
		<g opacity="0.4" clip-path="url(#SVGID_4_)">
			<path fill="#B1DFF8" d="M557.142,646.307c12.794,12.794,13.782,32.55,2.206,44.126l0,0
				c-11.575,11.575-31.332,10.588-44.126-2.206L223.67,396.674c-12.794-12.794-13.782-32.55-2.206-44.126l0,0
				c11.576-11.576,31.332-10.588,44.126,2.206L557.142,646.307z"/>
			<path fill="#B1DFF8" d="M782.526,583.258c12.794,12.794,13.782,32.55,2.206,44.126l0,0
				c-11.576,11.576-31.332,10.588-44.126-2.206L449.054,333.625c-12.794-12.794-13.782-32.55-2.206-44.126l0,0
				c11.576-11.576,31.332-10.588,44.126,2.206L782.526,583.258z"/>
			<path fill="#B1DFF8" d="M952.427,510.736c7.177,7.177,7.732,18.259,1.238,24.754l0,0c-6.494,6.494-17.576,5.939-24.753-1.238
				L663.349,268.69c-7.177-7.177-7.731-18.26-1.238-24.754l0,0c6.494-6.494,17.576-5.939,24.753,1.238L952.427,510.736z"/>
			<path fill="#B1DFF8" d="M699.473,602.469c4.057,4.057,4.37,10.321,0.7,13.991l0,0c-3.67,3.67-9.934,3.357-13.991-0.7
				L364.117,293.697c-4.057-4.057-4.37-10.321-0.7-13.991l0,0c3.67-3.67,9.934-3.357,13.991,0.7L699.473,602.469z"/>
			<path fill="#B1DFF8" d="M535.399,838.294c11.858,11.858,30.168,12.774,40.897,2.045l0,0c10.729-10.729,9.814-29.039-2.045-40.897
				L307.559,532.75c-11.858-11.858-30.169-12.773-40.897-2.045l0,0c-10.729,10.729-9.814,29.039,2.045,40.897L535.399,838.294z"/>
			<path fill="#B1DFF8" d="M653.724,708.104c2.809,2.809,3.025,7.145,0.484,9.686l0,0c-2.541,2.541-6.878,2.325-9.687-0.484
				L336.019,408.803c-2.809-2.809-3.025-7.145-0.484-9.686l0,0c2.541-2.541,6.878-2.324,9.686,0.484L653.724,708.104z"/>
			<path fill="#B1DFF8" d="M901.573,526.361c2.809,2.809,3.025,7.145,0.484,9.686l0,0c-2.541,2.541-6.878,2.324-9.686-0.484
				L583.868,227.06c-2.809-2.809-3.025-7.145-0.484-9.686l0,0c2.541-2.541,6.878-2.324,9.686,0.484L901.573,526.361z"/>
			<path fill="#B1DFF8" d="M750.563,507.309c4.057,4.057,4.37,10.321,0.7,13.991l0,0c-3.67,3.67-9.934,3.357-13.991-0.7
				L415.208,198.537c-4.057-4.057-4.37-10.321-0.7-13.991l0,0c3.67-3.67,9.934-3.357,13.991,0.7L750.563,507.309z"/>
			<path fill="#B1DFF8" d="M499.633,820.954c4.057,4.057,4.37,10.321,0.7,13.991l0,0c-3.67,3.67-9.934,3.357-13.991-0.7
				L164.277,512.181c-4.057-4.057-4.37-10.321-0.7-13.991l0,0c3.67-3.67,9.934-3.357,13.991,0.7L499.633,820.954z"/>
			<path fill="#B1DFF8" d="M593.427,782.811c2.809,2.809,3.025,7.145,0.484,9.686l0,0c-2.541,2.541-6.878,2.324-9.686-0.484
				L275.722,483.51c-2.809-2.809-3.025-7.145-0.484-9.686l0,0c2.541-2.541,6.878-2.324,9.686,0.484L593.427,782.811z"/>
			<path fill="#B1DFF8" d="M699.304,361.944c4.993,4.993,5.379,12.702,0.861,17.22l0,0c-4.518,4.518-12.227,4.132-17.22-0.861
				L415.124,110.481c-4.993-4.993-5.379-12.702-0.861-17.22l0,0c4.518-4.518,12.227-4.132,17.22,0.861L699.304,361.944z"/>
		</g>
		<path opacity="0.4" clip-path="url(#SVGID_4_)" fill="#FBD6B2" d="M716.124,539.307c12.794,12.794,32.55,13.782,44.126,2.206l0,0
			c11.576-11.576,10.588-31.332-2.206-44.126L466.491,205.835c-12.794-12.794-32.55-13.782-44.126-2.206l0,0
			c-11.576,11.576-10.588,31.332,2.206,44.126L716.124,539.307z"/>
		<path opacity="0.4" clip-path="url(#SVGID_4_)" fill="#F4B1B2" d="M653.075,764.691c12.794,12.794,32.55,13.782,44.126,2.206l0,0
			c11.576-11.576,10.588-31.332-2.206-44.126L403.442,431.219c-12.794-12.794-32.55-13.782-44.126-2.206l0,0
			c-11.576,11.576-10.588,31.332,2.206,44.126L653.075,764.691z"/>
		<path opacity="0.4" clip-path="url(#SVGID_4_)" fill="#FBD6B2" d="M695.134,630.827c7.177,7.177,18.259,7.732,24.753,1.238l0,0
			c6.494-6.494,5.939-17.576-1.238-24.753L453.088,341.75c-7.178-7.178-18.26-7.731-24.754-1.238l0,0
			c-6.494,6.494-5.94,17.576,1.238,24.754L695.134,630.827z"/>
		<path opacity="0.4" clip-path="url(#SVGID_4_)" fill="#F7C06D" d="M580.553,934.592c7.177,7.177,18.26,7.732,24.754,1.238l0,0
			c6.494-6.494,5.939-17.576-1.238-24.753L338.507,645.514c-7.177-7.177-18.26-7.731-24.753-1.238l0,0
			c-6.494,6.494-5.939,17.576,1.238,24.753L580.553,934.592z"/>
		<path opacity="0.4" clip-path="url(#SVGID_4_)" fill="#F4B1B2" d="M777.922,635.889c2.809,2.809,7.145,3.025,9.686,0.484l0,0
			c2.541-2.541,2.324-6.878-0.484-9.686L478.62,318.184c-2.809-2.809-7.145-3.025-9.686-0.484l0,0
			c-2.541,2.541-2.324,6.878,0.484,9.686L777.922,635.889z"/>
		<path opacity="0.4" clip-path="url(#SVGID_4_)" fill="#FFFFFF" d="M608.098,860.518c2.809,2.809,7.145,3.025,9.686,0.484l0,0
			c2.541-2.541,2.324-6.878-0.484-9.686L308.796,542.813c-2.809-2.809-7.145-3.025-9.686-0.484l0,0
			c-2.541,2.541-2.324,6.878,0.484,9.686L608.098,860.518z"/>
		<path opacity="0.4" clip-path="url(#SVGID_4_)" fill="#FFFFFF" d="M928.533,571.725c2.809,2.809,7.145,3.025,9.686,0.484l0,0
			c2.541-2.541,2.324-6.878-0.484-9.686L629.232,254.019c-2.809-2.809-7.145-3.025-9.686-0.484l0,0
			c-2.541,2.541-2.324,6.878,0.484,9.686L928.533,571.725z"/>
		<path opacity="0.4" clip-path="url(#SVGID_4_)" fill="#F4B1B2" d="M587.26,562.133c2.809,2.809,7.145,3.025,9.686,0.484l0,0
			c2.541-2.541,2.324-6.878-0.484-9.686L287.958,244.428c-2.809-2.809-7.145-3.025-9.686-0.484l0,0
			c-2.541,2.541-2.324,6.878,0.484,9.686L587.26,562.133z"/>
		<path opacity="0.4" clip-path="url(#SVGID_4_)" fill="#F4B1B2" d="M520.806,816.169c4.057,4.057,10.321,4.37,13.991,0.7l0,0
			c3.67-3.67,3.357-9.934-0.7-13.991L212.034,480.814c-4.057-4.057-10.321-4.37-13.991-0.7l0,0c-3.67,3.67-3.357,9.934,0.7,13.991
			L520.806,816.169z"/>
		<path opacity="0.4" clip-path="url(#SVGID_4_)" fill="#F7C06D" d="M907.207,588.251c2.809,2.809,7.145,3.025,9.686,0.484l0,0
			c2.541-2.541,2.324-6.878-0.484-9.686L607.906,270.546c-2.809-2.809-7.145-3.025-9.686-0.484l0,0
			c-2.541,2.541-2.324,6.878,0.484,9.686L907.207,588.251z"/>
		<path opacity="0.4" clip-path="url(#SVGID_4_)" fill="#FBD6B2" d="M459.028,672.283c4.993,4.993,12.702,5.379,17.22,0.861l0,0
			c4.518-4.518,4.132-12.227-0.861-17.22L207.565,388.103c-4.993-4.993-12.702-5.379-17.22-0.861l0,0
			c-4.518,4.518-4.132,12.227,0.861,17.22L459.028,672.283z"/>
	</g>
</g>
<rect x="6.808" y="-1.068" opacity="0.1" fill="#FBD6B2" width="572.445" height="457.333"/>
</svg>
