<?xml version="1.0" encoding="utf-8"?>
<!-- Generator: Adobe Illustrator 17.0.0, SVG Export Plug-In . SVG Version: 6.00 Build 0)  -->
<!DOCTYPE svg PUBLIC "-//W3C//DTD SVG 1.1//EN" "http://www.w3.org/Graphics/SVG/1.1/DTD/svg11.dtd">
<svg version="1.1" id="图层_1" xmlns="http://www.w3.org/2000/svg" xmlns:xlink="http://www.w3.org/1999/xlink" x="0px" y="0px"
	 width="54.521px" height="54.958px" viewBox="0 0 54.521 54.958" enable-background="new 0 0 54.521 54.958" xml:space="preserve">
<g>
	<g>
		<path fill="#F5A54F" d="M29.991,13.719c4.525,3.596,9.818,6.516,15.326,8.295c-2.853,8.814-7.515,15.558-16.544,14.905
			c0.971-1.525,1.641-3.21,2.066-5.007l3.548,1.92c1.313-2.425-0.625-4.856-3-5.774c0.098-1.654,0.044-3.365-0.129-5.104
			c0.57,0.174,1.204,0.285,1.905,0.329c0.438-1.546-0.757-3.548-2.322-3.408c-0.044-0.263-0.091-0.527-0.14-0.79l-0.436-2.359
			l-2.359,0.439c-0.17,0.031-0.339,0.062-0.51,0.091C28.175,16.07,29.047,14.889,29.991,13.719L29.991,13.719L29.991,13.719z
			 M10.392,19.786c-1.769,9.553-0.704,18.051,8.713,21.495c9.417-3.444,10.482-11.941,8.713-21.495
			C22.128,20.844,16.082,20.795,10.392,19.786L10.392,19.786L10.392,19.786z M14.666,32.856h9.165
			C23.832,37.791,14.666,37.791,14.666,32.856L14.666,32.856L14.666,32.856z M17.412,27.446c-1.974,0.259-3.52-0.102-4.677-1.03
			C14.383,22.635,17.599,25.175,17.412,27.446L17.412,27.446L17.412,27.446z M21.052,27.446c-0.186-2.272,3.03-4.811,4.677-1.03
			C24.573,27.345,23.026,27.706,21.052,27.446L21.052,27.446L21.052,27.446z M35.704,24.658c1.193,1.594,2.531,2.449,4.003,2.629
			C41.263,23.467,37.2,22.938,35.704,24.658L35.704,24.658z"/>
	</g>
	<circle fill="none" stroke="#F5A54F" stroke-width="2" stroke-miterlimit="10" cx="27.5" cy="27.5" r="25.676"/>
</g>
</svg>
