<?xml version="1.0" encoding="utf-8"?>
<!-- Generator: Adobe Illustrator 17.0.0, SVG Export Plug-In . SVG Version: 6.00 Build 0)  -->
<!DOCTYPE svg PUBLIC "-//W3C//DTD SVG 1.1//EN" "http://www.w3.org/Graphics/SVG/1.1/DTD/svg11.dtd">
<svg version="1.1" id="图层_1" xmlns="http://www.w3.org/2000/svg" xmlns:xlink="http://www.w3.org/1999/xlink" x="0px" y="0px"
	 width="45px" height="45px" viewBox="0 0 45 45" enable-background="new 0 0 45 45" xml:space="preserve">
<g>
	<circle fill-rule="evenodd" clip-rule="evenodd" fill="#F5AC23" cx="22.5" cy="22.5" r="22.5"/>
	<path fill="#FFFFFF" d="M34.228,14.193l-3.344-3.344l-1.125,1.11l3.344,3.344L34.228,14.193z M17.491,24.241l-1.125,4.454
		l4.469-1.11L17.491,24.241z M31.747,24.041v6.165c0,0.847-0.694,1.541-1.541,1.541H14.794c-0.847,0-1.541-0.694-1.541-1.541V14.794
		c0-0.847,0.694-1.541,1.541-1.541h9.247v-3.082h-9.247c-2.559,0-4.623,2.065-4.623,4.623v15.411c0,2.559,2.065,4.623,4.623,4.623
		h15.412c2.558,0,4.623-2.065,4.623-4.623v-6.165H31.747z M29.019,13.438l-0.37-0.37L18.601,23.116l3.344,3.344l9.309-9.309
		l0.2,0.185l0.785-0.786l-3.158-3.16L29.019,13.438z"/>
</g>
</svg>
