<?xml version="1.0" encoding="utf-8"?>
<!-- Generator: Adobe Illustrator 17.0.0, SVG Export Plug-In . SVG Version: 6.00 Build 0)  -->
<!DOCTYPE svg PUBLIC "-//W3C//DTD SVG 1.1//EN" "http://www.w3.org/Graphics/SVG/1.1/DTD/svg11.dtd">
<svg version="1.1" id="图层_1" xmlns="http://www.w3.org/2000/svg" xmlns:xlink="http://www.w3.org/1999/xlink" x="0px" y="0px"
	 width="54.167px" height="54.333px" viewBox="0.333 0 54.167 54.333" enable-background="new 0.333 0 54.167 54.333"
	 xml:space="preserve">
<g>
	<g>
		<path fill="#F5A54F" d="M39.843,32.607c0,0-0.108-0.824-1.238-0.824c-0.174,0-1.293,0-2.412,0
			c-1.481-4.949-3.874-12.75-5.366-17.567L29.648,10c0,0-0.038,0.017-0.127,0.042c-0.004-0.011-0.007-0.022-0.011-0.032
			c0-0.217-0.821-0.393-1.835-0.393c-1.013,0-1.835,0.176-1.835,0.393c-0.359,1.083-4.581,14.707-6.742,21.937
			c-1.334-0.041-2.616-0.166-2.781-0.166c-0.794,0-0.923,0.738-0.923,0.738l-3.322,11.55l0.646,1h30.186l0.371-1L39.843,32.607
			L39.843,32.607z M27.676,14.92c0.181,0,0.352-0.004,0.516-0.01c0.616,1.987,1.389,4.499,2.19,7.112
			c-0.734,0.17-1.636,0.294-2.706,0.294s-1.973-0.125-2.708-0.295c0.801-2.61,1.575-5.121,2.193-7.111
			C27.324,14.917,27.495,14.92,27.676,14.92L27.676,14.92z M27.676,29.76c2.144,0,3.726-0.341,4.84-0.734
			c0.826,2.727,1.536,5.097,1.948,6.519c-1.715,0.893-4.115,1.515-6.746,1.515c-2.652,0-5.105-0.593-6.85-1.469
			c0.406-1.409,1.124-3.804,1.962-6.567C23.945,29.418,25.529,29.76,27.676,29.76L27.676,29.76z"/>
	</g>
	<circle fill="none" stroke="#F5A54F" stroke-width="2" stroke-miterlimit="10" cx="27.676" cy="27.389" r="25.676"/>
</g>
</svg>
