<?xml version="1.0" standalone="no"?><!DOCTYPE svg PUBLIC "-//W3C//DTD SVG 1.1//EN" "http://www.w3.org/Graphics/SVG/1.1/DTD/svg11.dtd"><svg class="icon" width="16px" height="16.00px" viewBox="0 0 1024 1024" version="1.1" xmlns="http://www.w3.org/2000/svg"><path d="M512 640c-176.448 0-320-143.552-320-320s143.552-320 320-320 320 143.552 320 320-143.552 320-320 320z m0-576C370.816 64 256 178.816 256 320s114.816 256 256 256 256-114.816 256-256-114.816-256-256-256z" fill="#72736e" /><path d="M512 1024a32 32 0 0 1-32-32v-384a32 32 0 0 1 64 0v384a32 32 0 0 1-32 32z" fill="#72736e" /><path d="M672 800h-320a32 32 0 0 1 0-64h320a32 32 0 0 1 0 64z" fill="#72736e" /></svg>