<?xml version="1.0" encoding="utf-8"?>
<!-- Generator: Adobe Illustrator 17.0.0, SVG Export Plug-In . SVG Version: 6.00 Build 0)  -->
<!DOCTYPE svg PUBLIC "-//W3C//DTD SVG 1.1//EN" "http://www.w3.org/Graphics/SVG/1.1/DTD/svg11.dtd">
<svg version="1.1" id="图层_1" xmlns="http://www.w3.org/2000/svg" xmlns:xlink="http://www.w3.org/1999/xlink" x="0px" y="0px"
	 width="54.375px" height="54.125px" viewBox="0 0 54.375 54.125" enable-background="new 0 0 54.375 54.125" xml:space="preserve">
<g>
	<circle fill="none" stroke="#F5A54F" stroke-width="2" stroke-miterlimit="10" cx="27.282" cy="27.046" r="25.676"/>
	<path fill="#F5A54F" d="M38.799,39.363c0,0.439-0.356,0.795-0.794,0.795h-1.276H34.08H14.817c-1.497,0-2.715-1.218-2.715-2.715
		v-2.98c0-1.497,1.218-2.715,2.715-2.715H34.08h2.649h1.276c0.439,0,0.794,0.356,0.794,0.795s-0.356,0.795-0.794,0.795h-0.481v5.231
		h0.481C38.443,38.568,38.799,38.924,38.799,39.363L38.799,39.363L38.799,39.363z M15.846,38.694H33.77h2.17v-5.482h-2.17H15.846
		c-0.578,0-1.049,0.576-1.049,1.285v2.913C14.797,38.117,15.267,38.694,15.846,38.694L15.846,38.694L15.846,38.694z M42.202,29.923
		c0,0.439-0.356,0.795-0.795,0.795h-1.195h-2.729H21.502c-1.392,0-2.524-1.132-2.524-2.524v-2.121c0-1.392,1.132-2.524,2.524-2.524
		h15.981h2.729h1.195c0.439,0,0.794,0.356,0.794,0.795s-0.356,0.795-0.794,0.795h-0.4v3.991h0.4
		C41.846,29.128,42.202,29.484,42.202,29.923L42.202,29.923L42.202,29.923z M21.502,29.128h15.981h1.935v-3.991h-1.935H21.502
		c-0.516,0-0.935,0.419-0.935,0.935v2.121C20.567,28.709,20.986,29.128,21.502,29.128L21.502,29.128L21.502,29.128z M43.143,13.934
		h-6.806H18.226H11.42c-0.439,0-0.795,0.356-0.795,0.795s0.356,0.795,0.795,0.795h0.682v6.795c-0.364,0.253-0.603,0.673-0.603,1.148
		c0,0.771,0.627,1.397,1.397,1.397c0.771,0,1.397-0.627,1.397-1.397c0-0.475-0.239-0.895-0.603-1.148v-6.795h3.74v6.264
		c0,0.439,0.356,0.795,0.795,0.795h18.111c0.439,0,0.795-0.356,0.795-0.795v-6.264h6.011c0.439,0,0.795-0.356,0.795-0.795
		C43.938,14.29,43.582,13.934,43.143,13.934L43.143,13.934L43.143,13.934z"/>
</g>
</svg>
