<?xml version="1.0" encoding="utf-8"?>
<!-- Generator: Adobe Illustrator 17.0.0, SVG Export Plug-In . SVG Version: 6.00 Build 0)  -->
<!DOCTYPE svg PUBLIC "-//W3C//DTD SVG 1.1//EN" "http://www.w3.org/Graphics/SVG/1.1/DTD/svg11.dtd">
<svg version="1.1" id="图层_1" xmlns="http://www.w3.org/2000/svg" xmlns:xlink="http://www.w3.org/1999/xlink" x="0px" y="0px"
	 width="30.666px" height="30.666px" viewBox="0 0 30.666 30.666" enable-background="new 0 0 30.666 30.666" xml:space="preserve">
<g>
	<g>
		<g>
			<path fill-rule="evenodd" clip-rule="evenodd" fill="#727171" d="M25.889,16.709c0.77-1.543,1.214-3.271,1.214-5.107
				C27.103,5.194,21.833,0,15.333,0C8.833,0,3.564,5.194,3.564,11.602c0,1.835,0.444,3.564,1.213,5.107L0,24.866
				c0,0,3.03,0.607,6.104,1.24c2.048,2.283,4.089,4.561,4.089,4.561l4.392-7.5c0.249,0.015,0.496,0.038,0.748,0.038
				c0.252,0,0.499-0.022,0.749-0.038l4.392,7.5c0,0,2.04-2.278,4.089-4.561c3.075-0.632,6.104-1.24,6.104-1.24L25.889,16.709
				 M10.01,28.128l-0.236-0.264c-0.014-0.016-1.449-1.621-2.795-2.936c-1.923-0.544-4.348-1.101-4.373-1.106L2.27,23.745
				l3.393-5.878l0.233,0.304c1.548,2.02,4.33,3.801,6.923,4.433l0.331,0.08L10.01,28.128L10.01,28.128 M15.333,21.599
				c-5.463,0-10.078-4.51-10.078-9.849c0-5.516,4.709-10.355,10.078-10.355c5.463,0,10.078,4.626,10.078,10.102
				C25.411,16.973,20.796,21.599,15.333,21.599L15.333,21.599z M23.941,24.675c-1.353,1.321-3.033,3.172-3.05,3.191l-0.236,0.259
				l-3.138-5.442l0.331-0.08c2.482-0.605,5.037-2.304,6.669-4.434l0.224-0.292l3.686,5.893l-0.388,0.055
				C28.017,23.829,25.847,24.139,23.941,24.675"/>
			<path fill-rule="evenodd" clip-rule="evenodd" fill="#727171" d="M16.24,4.594c-4.547-0.578-8.388,3.267-7.808,7.817
				c0.395,3.098,2.896,5.601,5.994,5.995c4.547,0.578,8.388-3.266,7.809-7.816C21.84,7.491,19.34,4.989,16.24,4.594L16.24,4.594z
				 M16.264,16.913c-3.75,0.62-6.963-2.594-6.341-6.346c0.375-2.272,2.207-4.104,4.479-4.48c3.75-0.62,6.962,2.593,6.341,6.346
				C20.367,14.705,18.536,16.538,16.264,16.913"/>
		</g>
	</g>
</g>
</svg>
