<?xml version="1.0" encoding="utf-8"?>
<!-- Generator: Adobe Illustrator 17.0.0, SVG Export Plug-In . SVG Version: 6.00 Build 0)  -->
<!DOCTYPE svg PUBLIC "-//W3C//DTD SVG 1.1//EN" "http://www.w3.org/Graphics/SVG/1.1/DTD/svg11.dtd">
<svg version="1.1" id="图层_1" xmlns="http://www.w3.org/2000/svg" xmlns:xlink="http://www.w3.org/1999/xlink" x="0px" y="0px"
	 width="33.471px" height="32.862px" viewBox="0 0 33.471 32.862" enable-background="new 0 0 33.471 32.862" xml:space="preserve">
<g>
	<g>
		<path fill="#EBA82B" d="M30.844,2.295C27.82-0.75,22.883-0.768,19.84,2.258l-6.765,6.727c-3.044,3.026-3.061,7.966-0.037,11.012
			l0.37,0.372l1.617-1.61l-0.368-0.372c-2.139-2.152-2.127-5.644,0.026-7.784l6.765-6.725c2.155-2.139,5.643-2.128,7.779,0.025
			l0.369,0.371c2.136,2.155,2.124,5.644-0.025,7.783l-3.474,3.453l1.607,1.619l3.474-3.452c3.044-3.027,3.061-7.966,0.036-11.013
			L30.844,2.295z"/>
		<path fill="#EBA82B" d="M20.065,12.489l-1.618,1.61l0.37,0.372c1.036,1.042,1.604,2.426,1.598,3.898
			c-0.005,1.47-0.581,2.851-1.623,3.886l-6.765,6.726c-1.04,1.032-2.415,1.599-3.876,1.599c-0.008,0-0.014,0-0.02,0
			c-1.471-0.006-2.849-0.582-3.887-1.627l-0.368-0.37c-2.136-2.154-2.124-5.645,0.025-7.784l4.132-4.107l-1.606-1.619l-4.133,4.106
			c-3.044,3.027-3.061,7.966-0.035,11.013l0.368,0.372c1.465,1.476,3.417,2.291,5.495,2.299c0.009,0,0.019,0,0.028,0
			c2.068,0,4.015-0.803,5.481-2.263l6.766-6.726c1.476-1.465,2.291-3.419,2.298-5.499c0.007-2.079-0.795-4.038-2.26-5.513
			L20.065,12.489z"/>
	</g>
</g>
</svg>
