<?xml version="1.0" standalone="no"?><!DOCTYPE svg PUBLIC "-//W3C//DTD SVG 1.1//EN" "http://www.w3.org/Graphics/SVG/1.1/DTD/svg11.dtd"><svg class="icon" width="16px" height="16.00px" viewBox="0 0 1024 1024" version="1.1" xmlns="http://www.w3.org/2000/svg"><path d="M417.728118 1023.99872c-111.551861 0-216.38373-43.455946-295.231631-122.303847S0.19264 718.015102 0.19264 606.463242c0-111.551861 43.455946-216.38373 122.303847-295.231631C201.344388 232.31971 306.240257 188.863764 417.728118 188.863764s216.38373 43.455946 295.231631 122.303847a418.047477 418.047477 0 0 1 0 590.527262A414.783482 414.783482 0 0 1 417.728118 1023.99872z m0-771.135036c-94.463882 0-183.231771 36.799954-249.983688 103.55187S64.19256 511.99936 64.19256 606.463242s36.799954 183.231771 103.55187 249.983687S323.328236 959.9988 417.728118 959.9988s183.231771-36.799954 249.983687-103.551871a353.919558 353.919558 0 0 0 0-499.967375 350.911561 350.911561 0 0 0-249.983687-103.61587z" fill="#72736e" /><path d="M692.799774 363.007546a31.99996 31.99996 0 0 1-22.655972-54.591932l298.239628-298.239627a31.99996 31.99996 0 0 1 45.247943 45.247944l-298.239627 298.239627a31.87196 31.87196 0 0 1-22.591972 9.343988z" fill="#72736e" /><path d="M991.8074 262.783672a31.99996 31.99996 0 0 1-31.99996-31.99996V31.99996a31.99996 31.99996 0 0 1 63.99992 0v198.783752a31.99996 31.99996 0 0 1-31.99996 31.99996z" fill="#72736e" /><path d="M991.8074 63.99992h-198.783751a31.99996 31.99996 0 0 1 0-63.99992h198.783751a31.99996 31.99996 0 0 1 0 63.99992z" fill="#72736e" /></svg>