<?xml version="1.0" encoding="utf-8"?>
<!-- Generator: Adobe Illustrator 17.0.0, SVG Export Plug-In . SVG Version: 6.00 Build 0)  -->
<!DOCTYPE svg PUBLIC "-//W3C//DTD SVG 1.1//EN" "http://www.w3.org/Graphics/SVG/1.1/DTD/svg11.dtd">
<svg version="1.1" id="图层_1" xmlns="http://www.w3.org/2000/svg" xmlns:xlink="http://www.w3.org/1999/xlink" x="0px" y="0px"
	 width="41.719px" height="50px" viewBox="0 0 41.719 50" enable-background="new 0 0 41.719 50" xml:space="preserve">
<g>
	<g>
		<path fill-rule="evenodd" clip-rule="evenodd" fill="#F5AC23" d="M34.484,0.598C32.58,0.999,19.152,3.404,16.146,4.106
			c-3.507,0.802-3.507,1.704-3.507,7.816c0,6.112,0.1,19.34,0.1,21.043c0,3.006-0.702,4.51-2.705,4.51c-1.603,0-4.008,0.1-5.211,0.1
			C-1.29,37.575-2.392,50,6.226,50c1.002,0,5.01,0,6.413-0.401c1.403-0.401,4.109-1.503,4.109-5.01c0-3.006,0.1-21.444,0-24.851
			c-0.1-3.307,1.403-3.407,2.705-3.708c0.902-0.2,13.027-2.705,16.133-3.407c2.505-0.601,2.104,1.703,2.104,2.305v14.229
			c0,2.705-1.102,3.006-1.704,3.006c-1.803-0.1-4.509-0.1-6.012,0.301c-7.716,2.205-5.01,12.626,0.701,12.626
			c3.507,0,5.411,0.301,7.415-0.501c2.104-0.902,3.607-3.006,3.607-5.511c0-2.605,0.1-31.364,0.1-35.974
			C41.799-1.506,36.288,0.298,34.484,0.598L34.484,0.598 M34.484,0.598"/>
	</g>
</g>
</svg>
