<?xml version="1.0" encoding="utf-8"?>
<!-- Generator: Adobe Illustrator 17.0.0, SVG Export Plug-In . SVG Version: 6.00 Build 0)  -->
<!DOCTYPE svg PUBLIC "-//W3C//DTD SVG 1.1//EN" "http://www.w3.org/Graphics/SVG/1.1/DTD/svg11.dtd">
<svg version="1.1" id="图层_1" xmlns="http://www.w3.org/2000/svg" xmlns:xlink="http://www.w3.org/1999/xlink" x="0px" y="0px"
	 width="70.267px" height="50px" viewBox="0 0 70.267 50" enable-background="new 0 0 70.267 50" xml:space="preserve">
<g>
	<g>
		<path fill-rule="evenodd" clip-rule="evenodd" fill="#F5AC23" d="M70.267,38.076c0,4.018-4.018,5.929-5.995,5.929
			c-2.042,0-3.952,0-3.952-1.91l-8.037-4.018v1.976c0,3.952-4.018,9.947-9.947,9.947h-28.13c-5.929,0-9.947-5.995-9.947-9.947
			v-8.037c-1.976,0-4.018-2.043-4.018-4.018V13.966c0-1.976,2.043-4.018,4.018-4.018C4.259,4.018,8.277,0,14.206,0h28.13
			c5.929,0,9.947,4.018,9.947,9.947v2.042L60.32,6.06c0,0,1.91,0,3.952,0c1.977,0,5.995,1.977,5.995,3.887L70.267,38.076
			L70.267,38.076L70.267,38.076z M22.309,9.947v14.097v16.008l20.027-16.008L22.309,9.947L22.309,9.947z"/>
	</g>
</g>
</svg>
