<?xml version="1.0" encoding="utf-8"?>
<!-- Generator: Adobe Illustrator 17.0.0, SVG Export Plug-In . SVG Version: 6.00 Build 0)  -->
<!DOCTYPE svg PUBLIC "-//W3C//DTD SVG 1.1//EN" "http://www.w3.org/Graphics/SVG/1.1/DTD/svg11.dtd">
<svg version="1.1" id="图层_1" xmlns="http://www.w3.org/2000/svg" xmlns:xlink="http://www.w3.org/1999/xlink" x="0px" y="0px"
	 width="44.981px" height="44.998px" viewBox="0 0 44.981 44.998" enable-background="new 0 0 44.981 44.998" xml:space="preserve">
<g>
	<circle fill-rule="evenodd" clip-rule="evenodd" fill="#F5AC23" cx="22.481" cy="22.499" r="22.5"/>
	<g>
		<path fill-rule="evenodd" clip-rule="evenodd" fill="#FFFFFF" d="M18.51,31.076V18.271c0-0.379-0.308-0.686-0.686-0.686
			c-0.379,0-0.686,0.308-0.686,0.686v12.804c0,0.379,0.308,0.686,0.686,0.686C18.203,31.762,18.51,31.454,18.51,31.076L18.51,31.076
			z"/>
		<path fill-rule="evenodd" clip-rule="evenodd" fill="#FFFFFF" d="M32.374,17.003c-0.378,0-0.686,0.308-0.686,0.686v14.276
			c0,0.585-0.475,1.06-1.059,1.06H14.332c-0.585,0-1.06-0.475-1.06-1.06V17.689c0-0.378-0.308-0.686-0.686-0.686
			c-0.268,0-0.507,0.155-0.619,0.39l-0.067-0.037v14.609c0,1.341,1.091,2.432,2.432,2.432h16.298c1.341,0,2.432-1.091,2.432-2.432
			V17.689C33.062,17.311,32.753,17.003,32.374,17.003L32.374,17.003z"/>
		<path fill-rule="evenodd" clip-rule="evenodd" fill="#FFFFFF" d="M23.167,31.076V18.271c0-0.379-0.308-0.686-0.686-0.686
			c-0.379,0-0.686,0.308-0.686,0.686v12.804c0,0.379,0.308,0.686,0.686,0.686C22.859,31.762,23.167,31.454,23.167,31.076
			L23.167,31.076z"/>
		<path fill-rule="evenodd" clip-rule="evenodd" fill="#FFFFFF" d="M27.823,31.076V18.271c0-0.379-0.308-0.686-0.686-0.686
			c-0.379,0-0.686,0.308-0.686,0.686v12.804c0,0.379,0.308,0.686,0.686,0.686C27.515,31.762,27.823,31.454,27.823,31.076
			L27.823,31.076z"/>
		<path fill-rule="evenodd" clip-rule="evenodd" fill="#FFFFFF" d="M34.125,12.929h-6.66l-2.117-2.117
			c-0.136-0.136-0.318-0.21-0.51-0.21h-0.029h-4.681c-0.194,0-0.375,0.075-0.511,0.211l-2.116,2.116h-6.66
			c-0.379,0-0.686,0.308-0.686,0.686c0,0.379,0.308,0.686,0.686,0.686h6.984h0.045c0.193,0,0.374-0.075,0.51-0.211l2.117-2.117
			h3.971l2.117,2.117c0.136,0.136,0.316,0.21,0.521,0.21c0,0,0.001,0,0.001,0l7.017,0.001c0.379,0,0.686-0.308,0.686-0.686
			C34.81,13.236,34.503,12.929,34.125,12.929L34.125,12.929z"/>
	</g>
</g>
</svg>
