<?xml version="1.0" encoding="utf-8"?>
<!-- Generator: Adobe Illustrator 17.0.0, SVG Export Plug-In . SVG Version: 6.00 Build 0)  -->
<!DOCTYPE svg PUBLIC "-//W3C//DTD SVG 1.1//EN" "http://www.w3.org/Graphics/SVG/1.1/DTD/svg11.dtd">
<svg version="1.1" id="图层_1" xmlns="http://www.w3.org/2000/svg" xmlns:xlink="http://www.w3.org/1999/xlink" x="0px" y="0px"
	 width="27px" height="27px" viewBox="0 0 27 27" enable-background="new 0 0 27 27" xml:space="preserve">
<g id="Edit_Document_1">
	<g>
		<path fill="#FF8F00" d="M20.188,0.248H3.469c-1.847,0-3.344,1.483-3.344,3.313v19.878c0,1.83,1.497,3.313,3.344,3.313h9.195
			v-1.656H3.469c-0.921,0-1.672-0.742-1.672-1.656V3.561c0-0.914,0.751-1.656,1.672-1.656h16.719c0.922,0,1.672,0.743,1.672,1.656
			v9.739l1.672-1.657V3.561C23.531,1.731,22.034,0.248,20.188,0.248z"/>
	</g>
</g>
<g id="Edit_Document_2">
	<g>
		<path fill-rule="evenodd" clip-rule="evenodd" fill="#FF8F00" d="M5.141,5.217v1.656h13.375V5.217H5.141z M5.141,10.187h13.375
			V8.53H5.141V10.187z M5.141,13.5h13.375v-1.656H5.141V13.5z M5.141,16.813h6.688v-1.657H5.141V16.813z"/>
	</g>
</g>
<g id="Edit_Document_3">
	<g>
		<path fill="#FF8F00" d="M26.385,15.156l-1.182-1.171c-0.327-0.323-0.754-0.485-1.182-0.485c-0.428,0-0.855,0.162-1.182,0.485
			l-7.178,7.111c-0.326,0.324-1.325,1.575-1.325,1.999L13.5,26.752l3.69-0.828c0,0,1.691-0.99,2.018-1.314l7.177-7.111
			C27.038,16.852,27.038,15.803,26.385,15.156z M18.618,24.023c-0.095,0.089-0.422,0.308-0.822,0.56l-2.166-2.146
			c0.222-0.302,0.469-0.605,0.621-0.755l5.405-5.354l2.364,2.342L18.618,24.023z"/>
	</g>
</g>
</svg>
