<?xml version="1.0" encoding="utf-8"?>
<!-- Generator: Adobe Illustrator 17.0.0, SVG Export Plug-In . SVG Version: 6.00 Build 0)  -->
<!DOCTYPE svg PUBLIC "-//W3C//DTD SVG 1.1//EN" "http://www.w3.org/Graphics/SVG/1.1/DTD/svg11.dtd">
<svg version="1.1" id="图层_1" xmlns="http://www.w3.org/2000/svg" xmlns:xlink="http://www.w3.org/1999/xlink" x="0px" y="0px"
	 width="27px" height="27px" viewBox="0 0 27 27" enable-background="new 0 0 27 27" xml:space="preserve">
<g id="Attach">
	<g>
		<path fill="#FF8F00" d="M19.461,7.031c-0.471,0-0.852,0.362-0.852,0.809v12.129c0,2.675-2.292,4.852-5.109,4.852
			s-5.109-2.176-5.109-4.852V5.414c0-1.783,1.528-3.234,3.406-3.234s3.406,1.451,3.406,3.234v12.129
			c0,0.892-0.763,1.617-1.703,1.617s-1.703-0.725-1.703-1.617V7.84c0-0.447-0.381-0.809-0.852-0.809s-0.852,0.362-0.852,0.809v9.703
			c0,1.783,1.528,3.234,3.406,3.234s3.406-1.451,3.406-3.234V5.414c0-2.675-2.292-4.852-5.109-4.852S6.688,2.739,6.688,5.414v14.555
			c0,3.568,3.055,6.469,6.813,6.469s6.813-2.901,6.813-6.469V7.84C20.313,7.393,19.932,7.031,19.461,7.031z"/>
	</g>
</g>
</svg>
