<?xml version="1.0" encoding="utf-8"?>
<!-- Generator: Adobe Illustrator 17.0.0, SVG Export Plug-In . SVG Version: 6.00 Build 0)  -->
<!DOCTYPE svg PUBLIC "-//W3C//DTD SVG 1.1//EN" "http://www.w3.org/Graphics/SVG/1.1/DTD/svg11.dtd">
<svg version="1.1" id="图层_1" xmlns="http://www.w3.org/2000/svg" xmlns:xlink="http://www.w3.org/1999/xlink" x="0px" y="0px"
	 width="1279.546px" height="449.095px" viewBox="0 0 1279.546 449.095" enable-background="new 0 0 1279.546 449.095"
	 xml:space="preserve">
<g>
	<rect x="0" y="0" opacity="0.15" fill="#F5AC23" width="1278.743" height="449.095"/>
	<g>
		<g>
			<g>
				<path fill="#F9EEAC" d="M1206.531,449.095c-0.532-7.128-0.705-14.349-0.456-21.632c2.611-75.666-47.52-65.181-112.653,21.632
					H1206.531z"/>
				<path fill="#F9EEAC" d="M842.411,449.095c-65.398-50.511-142.826-53.477-195.586,0H842.411z"/>
			</g>
			<g>
				<path fill="#E8322E" d="M1050.218,449.095c-27.065-12.426-57.18-12.283-86.907,0H1050.218z"/>
			</g>
			<g opacity="0.6">
				<path fill="#F5AC23" d="M1199.171,449.095c32.989-31.033,62.16-45.261,81.738-40.787V251.887l0.833-76.792
					c-124.833,45-157.891,236.212-113.547,246.151c46.684,10.464-12.319,18.777-131.117,18.469l-0.453-0.002
					c-118.801-0.308-193.031-18.283-164.96-39.946c28.071-21.664,99.476-50.501,104.931-65.361
					c5.454-14.856-310.651,49.569-330.36,114.689H1199.171z"/>
			</g>
			<g opacity="0.2">
				<g>
					<path fill="#F5AC23" d="M1280.909,449.095V338.494c-84.61,50.915-141.403,59.769-128.47,18.128
						c13.842-44.572-23.062-77.512-82.003-73.202c-58.944,4.312-145.647,49.726-192.663,100.92
						c-25.517,27.776-38.177,50.801-37.602,64.755H1280.909z"/>
				</g>
			</g>
		</g>
	</g>
	<g>
		<g>
			<path fill="#FBF2BE" d="M0.909-0.044v34.535c140.376,81.973,337.181,108.008,474.805,55.627
				C562.875,56.944,616.189,24.53,630.36-0.044L0.909-0.044z"/>
		</g>
		<g opacity="0.4">
			<g>
				<path fill="#F5AC23" d="M128.605-0.044c86.854,12.103,196.009,56.924,264.553,111.566
					c82.575,65.813,161.948,39.143,176.383-59.287c2.908-19.842,3.813-37.318,3.009-52.279L128.605-0.044z"/>
			</g>
		</g>
		<g>
			<g>
				<path fill="#F08E8E" d="M0.909-0.044v42.912c9.244,2.965,18.453,5.982,27.582,9.041
					C150.194,92.737,229.119,68.808,222.258-0.044L0.909-0.044z"/>
			</g>
		</g>
		<g opacity="0.2">
			<g>
				<path fill="#F5AC23" d="M357.614-0.044c0.651,11.887,0.409,24.336-0.908,37.326c-11.155,109.744,74.669,139.385,157.547,73.082
					c70-56,143-96,187.594-110.408L357.614-0.044z"/>
			</g>
		</g>
	</g>
</g>
</svg>
