<?xml version="1.0" encoding="utf-8"?>
<!-- Generator: Adobe Illustrator 17.0.0, SVG Export Plug-In . SVG Version: 6.00 Build 0)  -->
<!DOCTYPE svg PUBLIC "-//W3C//DTD SVG 1.1//EN" "http://www.w3.org/Graphics/SVG/1.1/DTD/svg11.dtd">
<svg version="1.1" id="图层_1" xmlns="http://www.w3.org/2000/svg" xmlns:xlink="http://www.w3.org/1999/xlink" x="0px" y="0px"
	 width="21.167px" height="21px" viewBox="1.546 2.628 21.167 21" enable-background="new 1.546 2.628 21.167 21"
	 xml:space="preserve">
<g>
	<path fill="#F5AC23" d="M6.552,3.942c0.974,0,1.889,0.38,2.578,1.068s1.068,1.604,1.068,2.578v3.646H6.552
		c-0.974,0-1.889-0.379-2.578-1.068C3.286,9.477,2.906,8.561,2.906,7.588S3.285,5.699,3.974,5.01
		C4.663,4.321,5.579,3.942,6.552,3.942L6.552,3.942z M6.555,2.798c-2.647,0-4.793,2.146-4.793,4.793s2.145,4.793,4.793,4.793h3.712
		c0.596,0,1.08-0.484,1.08-1.08V7.59C11.347,4.943,9.202,2.798,6.555,2.798L6.555,2.798L6.555,2.798L6.555,2.798 M6.566,15.181
		L6.566,15.181h3.569v3.569c0,0.953-0.371,1.85-1.046,2.524c-0.674,0.674-1.571,1.046-2.524,1.046s-1.85-0.371-2.524-1.046
		c-0.674-0.674-1.046-1.57-1.046-2.524c0-0.953,0.371-1.85,1.046-2.524S5.612,15.181,6.566,15.181L6.566,15.181z M6.555,13.968
		c-2.647,0-4.793,2.145-4.793,4.793c0,2.647,2.145,4.793,4.793,4.793c2.647,0,4.793-2.145,4.793-4.793v-3.712
		c0-0.596-0.484-1.08-1.08-1.08H6.555 M17.773,3.923c0.967,0,1.876,0.377,2.559,1.06c0.684,0.683,1.06,1.592,1.06,2.559
		s-0.377,1.875-1.06,2.559c-0.683,0.683-1.592,1.06-2.559,1.06h-3.619V7.543c0-0.967,0.377-1.876,1.06-2.559
		C15.898,4.3,16.807,3.924,17.773,3.923L17.773,3.923z M17.726,2.798c-2.647,0-4.793,2.146-4.793,4.793v3.712
		c0,0.596,0.483,1.08,1.08,1.08h3.712c2.647,0,4.793-2.145,4.793-4.793C22.519,4.943,20.373,2.798,17.726,2.798L17.726,2.798
		L17.726,2.798L17.726,2.798 M17.725,15.165L17.725,15.165c0.96,0,1.863,0.374,2.542,1.053c0.679,0.679,1.053,1.582,1.053,2.542
		s-0.374,1.863-1.053,2.542c-0.679,0.679-1.582,1.053-2.542,1.053s-1.863-0.374-2.542-1.053c-0.679-0.679-1.053-1.582-1.053-2.542
		v-3.595H17.725L17.725,15.165z M17.726,13.968h-3.712c-0.596,0-1.08,0.483-1.08,1.08v3.712c0,2.647,2.145,4.793,4.793,4.793
		c2.647,0,4.793-2.145,4.793-4.793C22.519,16.114,20.373,13.968,17.726,13.968L17.726,13.968L17.726,13.968L17.726,13.968"/>
</g>
</svg>
