<?xml version="1.0" encoding="utf-8"?>
<!-- Generator: Adobe Illustrator 17.0.0, SVG Export Plug-In . SVG Version: 6.00 Build 0)  -->
<!DOCTYPE svg PUBLIC "-//W3C//DTD SVG 1.1//EN" "http://www.w3.org/Graphics/SVG/1.1/DTD/svg11.dtd">
<svg version="1.1" id="图层_1" xmlns="http://www.w3.org/2000/svg" xmlns:xlink="http://www.w3.org/1999/xlink" x="0px" y="0px"
	 width="55.832px" height="55.387px" viewBox="0 0 55.832 55.387" enable-background="new 0 0 55.832 55.387" xml:space="preserve">
<g>
	<circle fill="#FFFFFF" cx="28.36" cy="27.5" r="27.5"/>
	<g>
		<g>
			<path fill-rule="evenodd" clip-rule="evenodd" fill="#F5AC23" d="M28.382,28.67l4.29-6.099L28.382,28.67l7.026,2.763
				L28.382,28.67l-0.025,8.353L28.382,28.67l-7.075,2.763L28.382,28.67l-4.337-6.099L28.382,28.67L28.382,28.67z M28.359,11.194
				c-0.903,0-1.727,0.531-2.111,1.362l-3.653,7.904l-8.406,1.303c-0.863,0.134-1.58,0.748-1.859,1.59
				c-0.277,0.843-0.067,1.77,0.543,2.402l6.158,6.411l-1.429,8.889c-0.144,0.896,0.227,1.794,0.957,2.318
				c0.4,0.287,0.871,0.433,1.343,0.433c0.389,0,0.776-0.098,1.128-0.294l7.327-3.98l7.329,3.98c0.352,0.196,0.741,0.294,1.128,0.294
				c0.471,0,0.942-0.146,1.344-0.432c0.728-0.524,1.1-1.422,0.955-2.318l-1.428-8.889l6.161-6.411
				c0.61-0.632,0.819-1.56,0.541-2.402c-0.279-0.842-0.996-1.456-1.859-1.59l-8.404-1.303l-3.654-7.904
				C30.088,11.725,29.264,11.194,28.359,11.194L28.359,11.194L28.359,11.194 M28.359,11.194"/>
		</g>
	</g>
</g>
</svg>
