<?xml version="1.0" encoding="utf-8"?>
<!-- Generator: Adobe Illustrator 17.0.0, SVG Export Plug-In . SVG Version: 6.00 Build 0)  -->
<!DOCTYPE svg PUBLIC "-//W3C//DTD SVG 1.1//EN" "http://www.w3.org/Graphics/SVG/1.1/DTD/svg11.dtd">
<svg version="1.1" id="图层_1" xmlns="http://www.w3.org/2000/svg" xmlns:xlink="http://www.w3.org/1999/xlink" x="0px" y="0px"
	 width="21.333px" height="21.5px" viewBox="1.107 3.4 21.333 21.5" enable-background="new 1.107 3.4 21.333 21.5"
	 xml:space="preserve">
<g>
	<path fill="#F5AC23" d="M20.474,7.974L9.983,7.977C8.989,7.99,8.185,8.793,8.185,9.784V20.2c0.003,0.992,0.827,1.797,1.819,1.808
		h6.636l2.598,2.585c0.177,0.176,0.465,0.176,0.642,0c0.087-0.087,0.131-0.207,0.134-0.32V22.01h0.455
		c1.005,0,1.819-0.81,1.819-1.808V9.784C22.29,8.785,21.475,7.974,20.474,7.974L20.474,7.974 M20.471,20.847h-0.915
		c-0.116,0.003-0.229,0.046-0.316,0.133c-0.085,0.084-0.129,0.212-0.134,0.32v1.879l-2.086-2.332h-7.014
		c-0.504,0-0.653-0.151-0.653-0.649V9.784c0-0.499,0.152-0.649,0.653-0.649H20.47c0.504,0,0.653,0.151,0.653,0.649v10.414
		C21.124,20.699,20.972,20.847,20.471,20.847L20.471,20.847"/>
	<path fill="#F5AC23" d="M16.83,5.709c0-0.992-0.804-1.797-1.798-1.81L3.178,3.896C2.176,3.899,1.361,4.709,1.361,5.709v11.774
		c0.003,1,0.817,1.808,1.819,1.808h0.455v2.263c0.003,0.112,0.046,0.233,0.134,0.32c0.177,0.176,0.465,0.176,0.642,0
		c0.003-0.003,1.85-1.841,2.728-2.715c0.082-0.082,0.134-0.197,0.134-0.32c0-0.251-0.262-0.662-0.514-0.662
		c-0.126,0-0.347,0.148-0.432,0.23l-1.529,1.516l0.005-1.081c0-0.381-0.185-0.493-0.27-0.575c-0.087-0.087-0.324-0.13-0.439-0.133
		H3.18c-0.504,0-0.653-0.151-0.653-0.649V5.712c0-0.343,0.406-0.649,0.653-0.649h11.829c0.501,0,0.653,0.151,0.653,0.649v0.905
		c0,0.251,0.357,0.452,0.609,0.452c0.252,0,0.558-0.202,0.558-0.452L16.83,5.709L16.83,5.709"/>
</g>
</svg>
