<?xml version="1.0" encoding="utf-8"?>
<!-- Generator: Adobe Illustrator 17.0.0, SVG Export Plug-In . SVG Version: 6.00 Build 0)  -->
<!DOCTYPE svg PUBLIC "-//W3C//DTD SVG 1.1//EN" "http://www.w3.org/Graphics/SVG/1.1/DTD/svg11.dtd">
<svg version="1.1" id="图层_1" xmlns="http://www.w3.org/2000/svg" xmlns:xlink="http://www.w3.org/1999/xlink" x="0px" y="0px"
	 width="55.832px" height="55.387px" viewBox="0 0 55.832 55.387" enable-background="new 0 0 55.832 55.387" xml:space="preserve">
<g>
	<circle fill="#FFFFFF" cx="27.916" cy="27.694" r="27.5"/>
	<g>
		<path fill-rule="evenodd" clip-rule="evenodd" fill="#F5AC23" d="M22.283,25.954c-0.988,0-1.788,0.8-1.788,1.788
			c0,0.987,0.8,1.788,1.788,1.788c0.988,0,1.788-0.801,1.788-1.788C24.07,26.753,23.271,25.954,22.283,25.954L22.283,25.954z"/>
		<path fill-rule="evenodd" clip-rule="evenodd" fill="#F5AC23" d="M28.242,25.954c-0.988,0-1.788,0.801-1.788,1.788
			s0.8,1.788,1.788,1.788c0.988,0,1.788-0.801,1.788-1.788C30.03,26.755,29.23,25.954,28.242,25.954L28.242,25.954z"/>
		<path fill-rule="evenodd" clip-rule="evenodd" fill="#F5AC23" d="M34.201,25.954c-0.988,0-1.788,0.8-1.788,1.788
			c0,0.987,0.8,1.788,1.788,1.788c0.988,0,1.788-0.801,1.788-1.788C35.989,26.753,35.189,25.954,34.201,25.954L34.201,25.954z"/>
		<path fill-rule="evenodd" clip-rule="evenodd" fill="#F5AC23" d="M27.916,13.654c-8.781,0-15.925,6.297-15.925,14.039
			c0,2.868,0.979,5.614,2.837,7.974l-1.054,4.563c-0.124,0.367-0.01,0.764,0.296,1.034c0.306,0.271,0.753,0.372,1.173,0.261
			l5.313-1.39c2.268,1.046,4.801,1.597,7.36,1.597c8.782-0.001,15.925-6.299,15.925-14.039
			C43.841,19.953,36.697,13.654,27.916,13.654L27.916,13.654z M27.961,39.85c-2.35,0-4.677-0.541-6.728-1.566
			c-0.283-0.14-0.62-0.174-0.93-0.092l-4.29,1.138l1.16-3.416c0.108-0.32,0.039-0.668-0.189-0.936
			c-1.8-2.123-2.751-4.634-2.751-7.264c0-6.691,6.159-12.136,13.729-12.136c7.57,0,13.729,5.444,13.729,12.137
			C41.69,34.404,35.531,39.849,27.961,39.85L27.961,39.85z"/>
	</g>
</g>
</svg>
