<?xml version="1.0" encoding="utf-8"?>
<!-- Generator: Adobe Illustrator 17.0.0, SVG Export Plug-In . SVG Version: 6.00 Build 0)  -->
<!DOCTYPE svg PUBLIC "-//W3C//DTD SVG 1.1//EN" "http://www.w3.org/Graphics/SVG/1.1/DTD/svg11.dtd">
<svg version="1.1" id="图层_1" xmlns="http://www.w3.org/2000/svg" xmlns:xlink="http://www.w3.org/1999/xlink" x="0px" y="0px"
	 width="21.083px" height="23.75px" viewBox="1.552 1.337 21.083 23.75" enable-background="new 1.552 1.337 21.083 23.75"
	 xml:space="preserve">
<g>
	<g>
		<path fill="#F5AC23" d="M13.056,5.265c0,0.543-0.425,0.983-0.95,0.983l0,0c-0.525,0-0.95-0.44-0.95-0.983V2.621
			c0-0.543,0.425-0.983,0.95-0.983l0,0c0.525,0,0.95,0.44,0.95,0.983V5.265L13.056,5.265z M18.442,5.265
			c0,0.543-0.425,0.983-0.95,0.983l0,0c-0.525,0-0.95-0.44-0.95-0.983V2.621c0-0.543,0.425-0.983,0.95-0.983l0,0
			c0.525,0,0.95,0.44,0.95,0.983V5.265L18.442,5.265z M7.64,5.265c0,0.543-0.425,0.983-0.95,0.983l0,0
			c-0.525,0-0.95-0.44-0.95-0.983V2.621c0-0.543,0.425-0.983,0.95-0.983l0,0c0.525,0,0.95,0.44,0.95,0.983V5.265L7.64,5.265z
			 M4.825,3.743C4.675,7.461,6.321,7.296,6.69,7.296c2.733-0.09,2.294-3.553,2.294-3.553s0.209-0.008,1.077,0
			c-0.09,3.808,1.676,3.493,2.045,3.493C14.6,6.817,14.16,3.697,14.16,3.697s0.569-0.022,1.077,0
			c0.18,3.493,1.735,3.568,2.255,3.568c2.195-0.15,1.845-3.554,1.845-3.554s0.838-0.036,2.065,0.007
			c1.167-0.106,1.005,1.064,1.005,1.064s0,17.624,0,18.881s-1.035,1.15-1.035,1.15s-17.295,0-18.492,0s-1.073-1.12-1.073-1.12
			s0-17.594,0-18.911S2.88,3.743,2.88,3.743S3.748,3.735,4.825,3.743L4.825,3.743z M19.846,10.807c0-0.518-0.406-0.938-0.906-0.938
			H5.342c-0.501,0-0.906,0.42-0.906,0.938v0.188c0,0.518,0.406,0.938,0.906,0.938h13.597c0.501,0,0.906-0.42,0.906-0.938v-0.188
			H19.846z M19.786,15.445c0-0.518-0.406-0.939-0.906-0.939H5.282c-0.501,0-0.906,0.42-0.906,0.939v0.188
			c0,0.518,0.406,0.939,0.906,0.939h13.597c0.501,0,0.906-0.42,0.906-0.939L19.786,15.445L19.786,15.445z M19.786,20.083
			c0-0.518-0.406-0.938-0.906-0.938H5.282c-0.501,0-0.906,0.42-0.906,0.938v0.188c0,0.518,0.406,0.938,0.906,0.938h13.597
			c0.501,0,0.906-0.42,0.906-0.938L19.786,20.083L19.786,20.083z"/>
	</g>
</g>
</svg>
