<?xml version="1.0" encoding="utf-8"?>
<!-- Generator: Adobe Illustrator 17.0.0, SVG Export Plug-In . SVG Version: 6.00 Build 0)  -->
<!DOCTYPE svg PUBLIC "-//W3C//DTD SVG 1.1//EN" "http://www.w3.org/Graphics/SVG/1.1/DTD/svg11.dtd">
<svg version="1.1" id="图层_1" xmlns="http://www.w3.org/2000/svg" xmlns:xlink="http://www.w3.org/1999/xlink" x="0px" y="0px"
	 width="20.652px" height="19.154px" viewBox="0 0 20.652 19.154" enable-background="new 0 0 20.652 19.154" xml:space="preserve">
<g>
	<path fill="#F5AC23" d="M4.044,2.394v4.053h12.567V2.394c0-1.097-0.847-1.955-1.827-1.955H5.916
		C4.891,0.439,4.044,1.297,4.044,2.394L4.044,2.394z M6.807,5.922V2.775h7.041v3.147H6.807L6.807,5.922z"/>
	<path fill="#F5AC23" d="M0.256,6.399v2.622h7.576c0.223-1.24,1.248-2.146,2.451-2.146c1.203,0,2.228,0.906,2.451,2.146h7.576V6.399
		c0-1.097-0.802-1.955-1.827-1.955h-16.4C1.103,4.444,0.256,5.302,0.256,6.399L0.256,6.399z"/>
	<path fill="#F5AC23" d="M12.689,10.356c-0.312,1.049-1.248,1.859-2.362,1.859s-2.05-0.763-2.362-1.859H0.256v6.055
		c0,1.287,0.98,2.336,2.184,2.336h15.775c1.203,0,2.184-1.049,2.184-2.336v-6.055L12.689,10.356L12.689,10.356z"/>
	<path fill="#F5AC23" d="M9.258,9.593"/>
</g>
</svg>
