<?xml version="1.0" encoding="utf-8"?>
<!-- Generator: Adobe Illustrator 17.0.0, SVG Export Plug-In . SVG Version: 6.00 Build 0)  -->
<!DOCTYPE svg PUBLIC "-//W3C//DTD SVG 1.1//EN" "http://www.w3.org/Graphics/SVG/1.1/DTD/svg11.dtd">
<svg version="1.1" id="图层_1" xmlns="http://www.w3.org/2000/svg" xmlns:xlink="http://www.w3.org/1999/xlink" x="0px" y="0px"
	 width="26.75px" height="26.415px" viewBox="-0.252 -0.251 26.75 26.415" enable-background="new -0.252 -0.251 26.75 26.415"
	 xml:space="preserve">
<g>
	<path fill="#F5AC23" d="M4.906,11.444c0-0.903,0.732-1.635,1.635-1.635s1.635,0.732,1.635,1.635s-0.732,1.635-1.635,1.635
		S4.906,12.347,4.906,11.444L4.906,11.444L4.906,11.444L4.906,11.444 M11.446,11.444c0-0.903,0.732-1.635,1.635-1.635
		s1.635,0.732,1.635,1.635s-0.732,1.635-1.635,1.635C12.179,13.079,11.446,12.347,11.446,11.444L11.446,11.444L11.446,11.444
		L11.446,11.444 M22.937,22.888h-1.68v-1.635h1.857c0.781,0,1.414-0.732,1.414-1.635V3.38c0-0.903-0.633-1.745-1.414-1.745H3.049
		c-0.781,0-1.414,0.842-1.414,1.745v16.238c0,0.903,0.633,1.635,1.414,1.635h12.66c0.019,0,0.037-0.002,0.056,0h0.042v0.011
		c0.185,0.025,0.365,0.104,0.5,0.255l2.94,3.293c0.299,0.334,0.27,0.848-0.065,1.146c-0.335,0.299-0.849,0.27-1.148-0.065
		l-2.683-3.004H3.247C1.465,22.888,0,21.302,0,19.346V3.542C0,1.586,1.465,0,3.247,0h19.691c1.782,0,3.226,1.586,3.226,3.542v15.804
		C26.163,21.302,24.719,22.888,22.937,22.888L22.937,22.888L22.937,22.888L22.937,22.888 M17.987,11.444
		c0-0.903,0.732-1.635,1.635-1.635s1.635,0.732,1.635,1.635s-0.732,1.635-1.635,1.635S17.987,12.347,17.987,11.444L17.987,11.444
		L17.987,11.444L17.987,11.444 M17.987,11.444L17.987,11.444z"/>
</g>
</svg>
