<?xml version="1.0" encoding="utf-8"?>
<!-- Generator: Adobe Illustrator 17.0.0, SVG Export Plug-In . SVG Version: 6.00 Build 0)  -->
<!DOCTYPE svg PUBLIC "-//W3C//DTD SVG 1.1//EN" "http://www.w3.org/Graphics/SVG/1.1/DTD/svg11.dtd">
<svg version="1.1" id="图层_1" xmlns="http://www.w3.org/2000/svg" xmlns:xlink="http://www.w3.org/1999/xlink" x="0px" y="0px"
	 width="26.25px" height="26.75px" viewBox="-0.311 -0.237 26.25 26.75" enable-background="new -0.311 -0.237 26.25 26.75"
	 xml:space="preserve">
<g>
	<path fill="#F5AC23" d="M19.08,26.221h-9.037c-0.594,0-1.075-0.498-1.075-1.113c0-0.615,0.48-1.113,1.075-1.113h9.037
		c0.065,0,0.162-0.015,0.265-0.085c0.097-0.068,0.147-0.159,0.167-0.222l3.901-9.187c0.248-0.574,0.195-1.23-0.134-1.754
		c-0.331-0.524-0.888-0.838-1.492-0.838l-5.674-0.002c-0.476,0-0.891-0.321-1.027-0.791c-0.133-0.47,0.042-0.977,0.438-1.247
		c0.922-0.63,1.817-4.096,1.08-6.397c-0.414-1.302-1.08-1.263-1.368-1.247L14.92,2.23c-0.42,0-0.816,0.169-1.116,0.478
		c-0.296,0.309-0.459,0.72-0.459,1.158v1.517c0,1.768-0.666,3.431-1.871,4.68c-1.067,1.109-2.447,1.776-3.932,1.912v12.083
		c0,0.578-0.216,1.119-0.61,1.526c-0.395,0.41-0.92,0.636-1.472,0.636H1.998c-0.536,0-1.04-0.217-1.415-0.609
		C0.206,25.22,0,24.698,0,24.146V12.051c0-0.605,0.227-1.178,0.64-1.606c0.417-0.43,0.965-0.665,1.55-0.665h4.777
		c1.133,0,2.194-0.459,2.996-1.288c0.796-0.831,1.239-1.934,1.239-3.109V3.866c0-1.033,0.386-2.003,1.089-2.729
		c0.705-0.73,1.637-1.131,2.63-1.131h0.251c1.593-0.094,2.869,0.911,3.465,2.767c0.616,1.932,0.443,4.847-0.436,6.913h3.585
		c1.33,0.002,2.561,0.692,3.285,1.848c0.727,1.158,0.841,2.602,0.304,3.862l-3.882,9.146c-0.177,0.465-0.506,0.894-0.942,1.206
		C20.113,26.059,19.604,26.221,19.08,26.221L19.08,26.221z M2.143,23.997h3.255V12.002H2.19L2.143,23.997L2.143,23.997z"/>
</g>
</svg>
