<?xml version="1.0" encoding="utf-8"?>
<!-- Generator: Adobe Illustrator 17.0.0, SVG Export Plug-In . SVG Version: 6.00 Build 0)  -->
<!DOCTYPE svg PUBLIC "-//W3C//DTD SVG 1.1//EN" "http://www.w3.org/Graphics/SVG/1.1/DTD/svg11.dtd">
<svg version="1.1" id="图层_1" xmlns="http://www.w3.org/2000/svg" xmlns:xlink="http://www.w3.org/1999/xlink" x="0px" y="0px"
	 width="47.23px" height="55.305px" viewBox="0 0 47.23 55.305" enable-background="new 0 0 47.23 55.305" xml:space="preserve">
<g>
	<g>
		<path fill-rule="evenodd" clip-rule="evenodd" fill="#F5AC23" d="M23.712,16.593c-2.119,0-3.835,0.736-5.149,2.211
			c-1.318,1.475-1.977,3.69-1.977,6.651c0,3.008,0.659,5.257,1.973,6.747c1.314,1.49,2.985,2.238,4.996,2.238
			c0.747,0,1.456-0.123,2.123-0.368c-1.054-0.69-2.123-1.23-3.211-1.613l1.456-2.966c1.709,0.586,3.341,1.464,4.897,2.632
			c0.667-0.785,1.169-1.732,1.502-2.843c0.333-1.111,0.502-2.387,0.502-3.828c0-2.973-0.655-5.192-1.966-6.659
			C27.543,17.325,25.83,16.593,23.712,16.593L23.712,16.593z"/>
		<path fill-rule="evenodd" clip-rule="evenodd" fill="#F5AC23" d="M46.704,25.259c0-12.981-10.322-23.502-23.054-23.502
			S0.597,12.279,0.597,25.259c0,7.452,3.402,14.092,8.709,18.398l0,0c8.893,8.437,25.456,11.647,25.456,11.647l-2.096-8.406
			C40.918,43.321,46.704,34.98,46.704,25.259L46.704,25.259z M35.24,40.899c-0.785-0.234-1.552-0.556-2.299-0.966
			c-0.165-0.08-1.318-0.843-3.456-2.28c-1.686,0.736-3.552,1.107-5.598,1.107c-3.954,0-7.054-1.165-9.291-3.494
			c-2.241-2.329-3.364-5.602-3.364-9.812c0-4.199,1.123-7.467,3.368-9.801c2.249-2.333,5.295-3.502,9.146-3.502
			c3.816,0,6.839,1.169,9.073,3.502c2.234,2.333,3.352,5.602,3.352,9.801c0,2.222-0.31,4.176-0.931,5.862
			c-0.467,1.287-1.218,2.533-2.245,3.739c1.276,0.912,2.663,1.64,4.161,2.176L35.24,40.899L35.24,40.899z"/>
	</g>
</g>
</svg>
